<svg width="300" height="183" viewBox="0 0 300 183" fill="none" xmlns="http://www.w3.org/2000/svg">
<rect width="300" height="183" fill="#EEF1F4"/>
<path d="M139.336 96.3333L145.45 90.2189C146.492 89.1775 148.18 89.1775 149.222 90.2189L155.336 96.3333M152.669 93.6666L154.784 91.5522C155.825 90.5108 157.513 90.5108 158.555 91.5522L160.669 93.6666M152.669 85.6666H152.683M142.003 101.667H158.003C159.475 101.667 160.669 100.473 160.669 98.9999V82.9999C160.669 81.5272 159.475 80.3333 158.003 80.3333H142.003C140.53 80.3333 139.336 81.5272 139.336 82.9999V98.9999C139.336 100.473 140.53 101.667 142.003 101.667Z" stroke="#545F71" stroke-width="2" stroke-linecap="round" stroke-linejoin="round"/>
</svg>
